<mxfile host="Electron" modified="2024-05-24T12:23:22.399Z" agent="Mozilla/5.0 (Windows NT 10.0; Win64; x64) AppleWebKit/537.36 (KHTML, like Gecko) draw.io/24.0.4 Chrome/120.0.6099.109 Electron/28.1.0 Safari/537.36" etag="4Jl1FK8dnwRWqEDzGyuD" version="24.0.4" type="device">
  <diagram name="Page-1" id="c-fp1Y0VfbT5dWnl_Ch2">
    <mxGraphModel dx="2058" dy="1180" grid="1" gridSize="10" guides="1" tooltips="1" connect="1" arrows="1" fold="1" page="1" pageScale="1" pageWidth="850" pageHeight="1100" math="0" shadow="0">
      <root>
        <mxCell id="0" />
        <mxCell id="1" parent="0" />
        <mxCell id="gI3ikrVTgRbU_sErLgIe-8" value="&lt;font style=&quot;font-size: 14px;&quot;&gt;Selenium Resource Group&lt;/font&gt;" style="swimlane;whiteSpace=wrap;html=1;" vertex="1" parent="1">
          <mxGeometry x="152" y="226" width="598" height="444" as="geometry" />
        </mxCell>
        <mxCell id="gI3ikrVTgRbU_sErLgIe-9" value="&lt;font style=&quot;font-size: 14px;&quot;&gt;Azure Container Apps Environment&lt;/font&gt;" style="swimlane;whiteSpace=wrap;html=1;" vertex="1" parent="gI3ikrVTgRbU_sErLgIe-8">
          <mxGeometry x="28" y="104" width="382" height="306" as="geometry" />
        </mxCell>
        <mxCell id="gI3ikrVTgRbU_sErLgIe-1" value="" style="image;aspect=fixed;html=1;points=[];align=center;fontSize=12;image=img/lib/azure2/other/Worker_Container_App.svg;" vertex="1" parent="gI3ikrVTgRbU_sErLgIe-9">
          <mxGeometry x="40" y="60" width="68" height="66" as="geometry" />
        </mxCell>
        <mxCell id="gI3ikrVTgRbU_sErLgIe-11" value="" style="image;aspect=fixed;html=1;points=[];align=center;fontSize=12;image=img/lib/azure2/other/Worker_Container_App.svg;" vertex="1" parent="gI3ikrVTgRbU_sErLgIe-9">
          <mxGeometry x="245" y="60" width="68" height="66" as="geometry" />
        </mxCell>
        <mxCell id="gI3ikrVTgRbU_sErLgIe-12" value="" style="image;aspect=fixed;html=1;points=[];align=center;fontSize=12;image=img/lib/azure2/other/Worker_Container_App.svg;" vertex="1" parent="gI3ikrVTgRbU_sErLgIe-9">
          <mxGeometry x="245" y="187" width="68" height="66" as="geometry" />
        </mxCell>
        <mxCell id="gI3ikrVTgRbU_sErLgIe-13" value="" style="image;aspect=fixed;html=1;points=[];align=center;fontSize=12;image=img/lib/azure2/other/Worker_Container_App.svg;" vertex="1" parent="gI3ikrVTgRbU_sErLgIe-9">
          <mxGeometry x="40" y="187" width="68" height="66" as="geometry" />
        </mxCell>
        <mxCell id="gI3ikrVTgRbU_sErLgIe-14" value="&lt;b&gt;Selenium-Hub&lt;/b&gt;" style="text;strokeColor=none;align=center;fillColor=none;html=1;verticalAlign=middle;whiteSpace=wrap;rounded=0;" vertex="1" parent="gI3ikrVTgRbU_sErLgIe-9">
          <mxGeometry x="29" y="30" width="90" height="40" as="geometry" />
        </mxCell>
        <mxCell id="gI3ikrVTgRbU_sErLgIe-15" value="&lt;b&gt;Firefox-Node&lt;/b&gt;" style="text;strokeColor=none;align=center;fillColor=none;html=1;verticalAlign=middle;whiteSpace=wrap;rounded=0;" vertex="1" parent="gI3ikrVTgRbU_sErLgIe-9">
          <mxGeometry x="29" y="147" width="90" height="40" as="geometry" />
        </mxCell>
        <mxCell id="gI3ikrVTgRbU_sErLgIe-16" value="&lt;b&gt;Chrome-Node&lt;/b&gt;" style="text;strokeColor=none;align=center;fillColor=none;html=1;verticalAlign=middle;whiteSpace=wrap;rounded=0;" vertex="1" parent="gI3ikrVTgRbU_sErLgIe-9">
          <mxGeometry x="234" y="30" width="90" height="40" as="geometry" />
        </mxCell>
        <mxCell id="gI3ikrVTgRbU_sErLgIe-17" value="&lt;b&gt;Edge-Node&lt;/b&gt;" style="text;strokeColor=none;align=center;fillColor=none;html=1;verticalAlign=middle;whiteSpace=wrap;rounded=0;" vertex="1" parent="gI3ikrVTgRbU_sErLgIe-9">
          <mxGeometry x="234" y="147" width="90" height="40" as="geometry" />
        </mxCell>
        <mxCell id="gI3ikrVTgRbU_sErLgIe-4" value="" style="image;sketch=0;aspect=fixed;html=1;points=[];align=center;fontSize=12;image=img/lib/mscae/Managed_Identities.svg;" vertex="1" parent="gI3ikrVTgRbU_sErLgIe-8">
          <mxGeometry x="468" y="154" width="57.76" height="76" as="geometry" />
        </mxCell>
        <mxCell id="gI3ikrVTgRbU_sErLgIe-3" value="" style="image;aspect=fixed;html=1;points=[];align=center;fontSize=12;image=img/lib/azure2/other/Container_App_Environments.svg;" vertex="1" parent="gI3ikrVTgRbU_sErLgIe-8">
          <mxGeometry x="28" y="54" width="68" height="68" as="geometry" />
        </mxCell>
        <mxCell id="gI3ikrVTgRbU_sErLgIe-6" value="" style="image;aspect=fixed;html=1;points=[];align=center;fontSize=12;image=img/lib/azure2/analytics/Log_Analytics_Workspaces.svg;" vertex="1" parent="gI3ikrVTgRbU_sErLgIe-8">
          <mxGeometry x="478" y="290" width="69" height="69" as="geometry" />
        </mxCell>
        <mxCell id="gI3ikrVTgRbU_sErLgIe-18" value="&lt;b&gt;Managed Identity&lt;/b&gt;" style="text;strokeColor=none;align=center;fillColor=none;html=1;verticalAlign=middle;whiteSpace=wrap;rounded=0;" vertex="1" parent="gI3ikrVTgRbU_sErLgIe-8">
          <mxGeometry x="438.88" y="122" width="108.12" height="40" as="geometry" />
        </mxCell>
        <mxCell id="gI3ikrVTgRbU_sErLgIe-19" value="&lt;b&gt;Log Analytics Workspace&lt;/b&gt;" style="text;strokeColor=none;align=center;fillColor=none;html=1;verticalAlign=middle;whiteSpace=wrap;rounded=0;" vertex="1" parent="gI3ikrVTgRbU_sErLgIe-8">
          <mxGeometry x="442.82000000000005" y="254" width="108.12" height="40" as="geometry" />
        </mxCell>
        <mxCell id="gI3ikrVTgRbU_sErLgIe-7" value="" style="image;aspect=fixed;html=1;points=[];align=center;fontSize=12;image=img/lib/azure2/general/Resource_Groups.svg;" vertex="1" parent="1">
          <mxGeometry x="152" y="180" width="68" height="64" as="geometry" />
        </mxCell>
      </root>
    </mxGraphModel>
  </diagram>
</mxfile>
